<?xml version="1.0" encoding="utf-8"?>
<!-- Generator: Adobe Illustrator 22.1.0, SVG Export Plug-In . SVG Version: 6.00 Build 0)  -->
<svg version="1.1" id="Слой_1" xmlns="http://www.w3.org/2000/svg" xmlns:xlink="http://www.w3.org/1999/xlink" x="0px" y="0px"
	 viewBox="0 0 968.8 211.3" style="enable-background:new 0 0 968.8 211.3;" xml:space="preserve">
<style type="text/css">
	.st0{enable-background:new    ;}
	.st1{fill:#231F20;}
	.st2{fill:#2BA7D2;}
	.st3{fill:#444445;}
	.st4{fill:#466FB5;}
</style>
<g class="st0">
	<path class="st1" d="M124.4,588.2v54.3c0,8-5.2,11.2-13,11.2s-13-3.2-13-11.2v-4.3c-7,9.6-21.8,15.4-34.8,15.4
		c-36.4,0-59.2-26.6-59.2-65.4c0-38.8,23.6-64.1,60-64.1C97.1,524.1,124.4,545.4,124.4,588.2z M30.3,588.2c0,22.9,12.5,39.1,34,39.1
		c18.7,0,34-16.5,34-39.1c0-22.6-12.5-37.5-34-37.5S30.3,565.3,30.3,588.2z"/>
	<path class="st1" d="M217.1,587.4c0-30.9-13.3-36.4-22.9-37c-11.4-0.8-22.3,8.2-22.3,25V643c0,8-5.7,10.6-13.5,10.6
		c-7.8,0-13.5-2.7-13.5-10.6V534.8c0-8,5.7-10.6,13.5-10.6c7.5,0,13.5,2.7,13.5,10.6v3.2c6.2-10.6,18.7-14.9,30.1-13.6
		c9.9,1.3,20.3,6.1,28.1,16c9.6-11.7,22.9-16.2,35.9-16.2c22.6,0,49.4,12.5,49.4,53.2V643c0,8-5.7,10.6-13.5,10.6
		c-7.5,0-13.5-2.7-13.5-10.6v-66.2c0-17.6-10.7-26.9-22.3-26.1c-9.4,0.5-22.9,5.6-22.9,34.6V643c0,8-5.2,10.6-13,10.6
		c-7.8,0-13-2.7-13-10.6V587.4z"/>
	<path class="st1" d="M449.4,588.2v54.3c0,8-5.2,11.2-13,11.2c-7.8,0-13-3.2-13-11.2v-4.3c-7,9.6-21.8,15.4-34.8,15.4
		c-36.4,0-59.2-26.6-59.2-65.4c0-38.8,23.6-64.1,60-64.1C422.1,524.1,449.4,545.4,449.4,588.2z M355.3,588.2
		c0,22.9,12.5,39.1,34,39.1c18.7,0,34-16.5,34-39.1c0-22.6-12.5-37.5-34-37.5S355.3,565.3,355.3,588.2z"/>
	<path class="st1" d="M496.9,540.1c9.1-12.2,24.4-17.6,42.1-15.4c27.5,3.5,45.2,24.5,45.2,63.3V643c0,8-5.7,10.6-13.5,10.6
		c-7.5,0-13.5-2.7-13.5-10.6v-58.3c0-22.9-10.1-34.3-30.1-34c-18.7,0.3-30.1,11.2-30.1,42V643c0,8-5.7,10.6-13.5,10.6
		c-7.8,0-13.5-2.7-13.5-10.6V534.8c0-8,5.7-10.6,13.5-10.6c7.8,0,13.5,2.7,13.5,10.6V540.1z"/>
</g>
<g class="st0">
	<path class="st2" d="M705.8,629.7c0,14.1-7,21.3-20.8,21.3h-33.8c-37.2,0-57.2-28.2-57.2-62.2s20-62,57.2-62h26.5v-54
		c0-8,6.2-10.6,14-10.6c7.8,0,14,2.7,14,10.6V629.7z M670.5,624.4c5.5,0,7.3-1.9,7.3-7.4v-63.6h-23.4c-23.6,0-33.3,14.6-33.3,35.4
		c0,20.7,9.6,35.6,33.3,35.6H670.5z"/>
	<path class="st2" d="M837.8,588.7c0,37-23.9,64.9-60.3,64.9s-60.3-27.9-60.3-64.9c0-37,23.9-64.6,60.3-64.6
		S837.8,551.8,837.8,588.7z M744.5,588.7c0,20.7,10.9,39.6,33,39.6s33-18.9,33-39.6c0-20.7-10.9-39.4-33-39.4S744.5,568,744.5,588.7
		z"/>
	<path class="st2" d="M845.3,588.7c0-40.2,26.5-64.9,65-64.6c23.6,0.3,41.3,11.2,50.9,25.3c3.9,5.6,5.2,13.6-1,18.9
		c-5.7,4.8-14,5.1-20-2.1c-6.2-7.4-17.7-16-32.5-15.4c-22.6,0.8-35.3,16-35.3,38c0,22.3,12.7,38.3,35.3,38.3
		c19.2,0,26.8-7.7,33-15.2c6-7.2,13.8-7.2,19.5-2.4c6.2,5.3,4.9,13.3,1,18.9c-9.6,14.1-27.3,25-50.9,25.3
		C871.8,653.9,845.3,628.9,845.3,588.7z"/>
</g>
<g class="st0">
	<path class="st2" d="M86.1,324.5c6.9,0,11.1,6.4,11.1,15.2c0,8.6-4.2,15.1-11.1,15.1c-6.9,0-11.1-6.4-11.1-15.1
		C75,330.9,79.2,324.5,86.1,324.5z M86.1,330c-2.9,0-5,3.3-5,9.7c0,6.3,2.2,9.6,5,9.6c3,0,5.2-3.3,5.2-9.6
		C91.3,333.3,89.2,330,86.1,330z M107.9,337.7h5.9v5.1h-5.9v21.1h-6.2v-42h6.2V337.7z"/>
</g>
<g class="st0">
	<path class="st3" d="M151.4,363.5v-13.9H135v-3.4h37.2v3.4h-16.6v13.9H151.4z M139.5,341.2v-16.7h28.1v16.7H139.5z M163.5,327.9
		h-19.7v10h19.7V327.9z"/>
	<path class="st3" d="M194.3,352.6v-25.2h8.7v3.4h-4.8v18.3c1.1,0.1,3.8-0.2,5.2-0.6l0.6,3.3C201.6,352.4,198.1,352.6,194.3,352.6z
		 M205.1,352.6v-25.2h9v3.4h-5v18.3c1.7,0,4.2-0.4,5.8-0.9l0.6,3.3C213,352.2,209.1,352.6,205.1,352.6z M224.6,363.4v-21.1h-4.1
		v19.1h-3.9v-38.3h3.9v15.8h4.1v-16.7h4v41.2H224.6z"/>
	<path class="st3" d="M256.5,352.8c-1.3,0-2.6,0-3.8,0v-26.6h4.2v23c4.9,0,14-0.6,18.8-1.8c0.2,1.2,0.4,2.3,0.6,3.4
		C271.5,352.1,262.2,352.7,256.5,352.8z M283.2,338.3h6.6v3.5h-6.6v21.6H279v-41.2h4.2V338.3z"/>
</g>
<g class="st0">
	<path class="st2" d="M331.9,345v-19.7h19.9V345H331.9z M336.3,362.7v-13.4h6.2v8.4h22.2v4.9H336.3z M345.7,330.2h-7.6v9.9h7.6
		V330.2z M363.9,333.7h5.9v5.1h-5.9v13.5h-6.2v-30.5h6.2V333.7z"/>
</g>
<g class="st0">
	<path class="st3" d="M395.9,352.8c-1.3,0-2.6,0-3.8,0v-26.6h4.2v23c4.9,0,14-0.6,18.8-1.8c0.2,1.2,0.4,2.3,0.6,3.4
		C410.9,352.1,401.6,352.7,395.9,352.8z M422.6,338.3h6.6v3.5h-6.6v21.6h-4.2v-41.2h4.2V338.3z"/>
	<path class="st3" d="M449,346.6v-3.4h37.2v3.4H449z M453.9,362.6v-12.2h4.2v8.8h24.2v3.4H453.9z M454.1,338.3v-14.4h4.2v11h23.9
		v3.4H454.1z"/>
</g>
<g class="st0">
	<path class="st3" d="M532.8,352.4h-4v-25.6h4.2v22.1c4,0,10.3-0.4,13.1-1.2c0.2,1.1,0.4,2.3,0.6,3.4
		C543.8,351.8,537.9,352.3,532.8,352.4z M558.1,363.4v-21.7h-5v19.7h-4v-38.3h4v15.2h5v-16.1h4v41.2H558.1z"/>
</g>
<g class="st0">
	<path class="st3" d="M604.2,347.2v-3.4h16.5v-6.2h4.2v6.2h16.6v3.4H604.2z M637.8,340c-6.3-1.1-13-5.6-15-9.8
		c-1.7,4.2-8.1,8.7-14.8,9.8l-1.9-3.2c6.9-0.7,14.6-5.8,14.6-11.7v-1.5h4.3v1.5c0,5.9,8.6,11.1,14.7,11.7L637.8,340z M608.7,362.2
		v-11.9h4.2v8.5h24.2v3.4H608.7z"/>
	<path class="st3" d="M685,335.6c0,6.1-4.7,10.2-11,10.2c-6.4,0-11.1-4.1-11.1-10.1c0-6.1,4.7-10.5,11-10.5S685,329.6,685,335.6z
		 M667.2,335.6c0,4,2.8,6.7,6.8,6.7c4.1,0,6.7-2.7,6.7-6.7c0-4-2.6-6.9-6.7-6.9C670,328.7,667.2,331.6,667.2,335.6z M668.1,362.1
		v-12.9h4.2v9.5h23.3v3.4H668.1z M694.2,337.7v14.4h-4.2v-30h4.2v12h6.2v3.5H694.2z"/>
	<path class="st3" d="M733.2,354.2c-4.7,0.2-9,0.3-12.3,0.4l-0.7-3.6c4,0,8.8,0,13.6-0.3c5.9-0.2,10.7-0.6,14-0.9l0.4,3.3
		C744.6,353.5,738.5,353.9,733.2,354.2z M733.8,344.6c-6.1,0-10.8-3.8-10.8-9.4c0-5.7,4.7-9.7,10.8-9.7c6.1,0,10.8,3.8,10.8,9.7
		C744.6,340.9,739.8,344.6,733.8,344.6z M733.8,329c-3.6,0-6.6,2.6-6.6,6.2c0,3.5,3,5.9,6.6,5.9c3.6,0,6.7-2.4,6.7-5.9
		C740.5,331.4,737.5,329,733.8,329z M754.7,322.2v41.2h-4.1v-41.2H754.7z"/>
</g>
<g class="st0">
	<path class="st2" d="M823.5,338.3l0.5,4.8c-3.7,0.7-11.3,1.5-19.3,1.5c-1.2,0-2.3,0-3.6,0v-19.9H820v4.9h-12.6v10
		C812.9,339.6,819.4,339.2,823.5,338.3z M832.9,348.4v15.5h-6.2v-10.6h-21.6v-4.9H832.9z M832.8,337.3v9.1h-6.3v-24.5h6.3v10.4h5.9
		v5H832.8z"/>
</g>
<g class="st0">
	<path class="st3" d="M866.5,350.3c6.4,0,13-0.4,17.2-1.3l0.6,3.4c-4.3,0.9-11.2,1.3-18.8,1.4h-4.2V326H881v3.4h-15.5v8h13.7v3.4
		h-13.7v9.6H866.5z M889.6,363.4v-22.2h-8v-3.5h8v-15.5h4.2v41.2H889.6z"/>
</g>
<g>
	<path class="st1" d="M131.9,136v56.6c0,8.3-5.4,11.6-13.5,11.6s-13.5-3.3-13.5-11.6v-4.4c-7.3,10-22.7,16.1-36.3,16.1
		c-37.9,0-61.7-27.7-61.7-68.2c0-40.5,24.6-66.8,62.6-66.8C103.5,69.2,131.9,91.3,131.9,136z M33.9,136c0,23.8,13,40.8,35.5,40.8
		c19.5,0,35.5-17.2,35.5-40.8c0-23.6-13-39.1-35.5-39.1S33.9,112.1,33.9,136z"/>
	<path class="st1" d="M220.7,135.2c0-32.2-13.8-38-23.8-38.5c-11.9-0.8-23.3,8.6-23.3,26.1v70.4c0,8.3-6,11.1-14.1,11.1
		c-8.1,0-14.1-2.8-14.1-11.1V80.3c0-8.3,6-11.1,14.1-11.1c7.9,0,14.1,2.8,14.1,11.1v3.3c6.5-11.1,19.5-15.5,31.4-14.1
		c10.3,1.4,21.1,6.4,29.2,16.6c10-12.2,23.8-16.9,37.4-16.9c23.6,0,51.5,13,51.5,55.4v68.5c0,8.3-6,11.1-14.1,11.1
		c-7.9,0-14.1-2.8-14.1-11.1v-69c0-18.3-11.1-28-23.3-27.2c-9.7,0.6-23.8,5.8-23.8,36v60.2c0,8.3-5.4,11.1-13.5,11.1
		c-8.1,0-13.5-2.8-13.5-11.1V135.2z"/>
	<path class="st1" d="M455,136v56.6c0,8.3-5.4,11.6-13.5,11.6c-8.1,0-13.5-3.3-13.5-11.6v-4.4c-7.3,10-22.7,16.1-36.3,16.1
		c-37.9,0-61.7-27.7-61.7-68.2c0-40.5,24.6-66.8,62.6-66.8C426.5,69.2,455,91.3,455,136z M356.9,136c0,23.8,13,40.8,35.5,40.8
		c19.5,0,35.5-17.2,35.5-40.8c0-23.6-13-39.1-35.5-39.1S356.9,112.1,356.9,136z"/>
	<path class="st1" d="M496.7,85.8c9.5-12.8,25.5-18.3,43.9-16.1c28.7,3.6,47.1,25.5,47.1,66v57.4c0,8.3-6,11.1-14.1,11.1
		c-7.9,0-14.1-2.8-14.1-11.1v-60.7c0-23.8-10.6-35.8-31.4-35.5c-19.5,0.3-31.4,11.6-31.4,43.8v52.4c0,8.3-6,11.1-14.1,11.1
		s-14.1-2.8-14.1-11.1V80.3c0-8.3,6-11.1,14.1-11.1s14.1,2.8,14.1,11.1V85.8z"/>
	<path class="st4" d="M710.6,179.3c0,14.7-7.3,22.1-21.6,22.1h-35.1c-38.6,0-59.5-29.3-59.5-64.7s20.8-64.5,59.5-64.5h27.6V16
		C681.4,7.7,687.9,5,696,5c8.1,0,14.6,2.8,14.6,11.1V179.3z M673.9,173.7c5.7,0,7.6-1.9,7.6-7.7V99.9h-24.3
		c-24.6,0-34.6,15.2-34.6,36.8c0,21.6,10,37.1,34.6,37.1H673.9z"/>
	<path class="st4" d="M840.1,136.7c0,38.5-24.9,67.5-62.7,67.5s-62.7-29.1-62.7-67.5c0-38.5,24.9-67.2,62.7-67.2
		S840.1,98.2,840.1,136.7z M743,136.7c0,21.6,11.4,41.2,34.3,41.2c23,0,34.3-19.6,34.3-41.2c0-21.6-11.4-40.9-34.3-40.9
		C754.4,95.7,743,115.1,743,136.7z"/>
	<path class="st4" d="M840.1,136.7c0-41.8,27.6-67.5,67.6-67.2c24.6,0.3,43,11.6,53,26.3c4.1,5.8,5.4,14.1-1.1,19.6
		c-5.9,5-14.6,5.3-20.8-2.2c-6.5-7.7-18.4-16.6-33.8-16c-23.5,0.8-36.8,16.6-36.8,39.6c0,23.2,13.2,39.8,36.8,39.8
		c20,0,27.8-8,34.3-15.8c6.2-7.5,14.3-7.5,20.3-2.5c6.5,5.5,5.1,13.8,1.1,19.6c-10,14.7-28.4,26-53,26.3
		C867.6,204.4,840.1,178.4,840.1,136.7z"/>
</g>
<text transform="matrix(0.9768 0 0 1 4.882812e-04 -95.2052)"><tspan x="0" y="0" class="st1" style="font-family:'SDByeolpyo-aBasic-KSCpc-EUC-H'; font-size:277.2411px; letter-spacing:-13.3;">aman</tspan><tspan x="601.6" y="0" class="st4" style="font-family:'SDByeolpyo-aBasic-KSCpc-EUC-H'; font-size:276.6725px; letter-spacing:-13.3;">doc</tspan></text>
</svg>
