<?xml version="1.0" encoding="utf-8"?>
<!-- Generator: Adobe Illustrator 22.1.0, SVG Export Plug-In . SVG Version: 6.00 Build 0)  -->
<svg version="1.1" id="Layer_1" xmlns="http://www.w3.org/2000/svg" xmlns:xlink="http://www.w3.org/1999/xlink" x="0px" y="0px"
	 viewBox="0 0 512 512" style="enable-background:new 0 0 512 512;" xml:space="preserve">
<style type="text/css">
	.st0{fill:#D5D5D3;}
	.st1{fill:#3867D6;}
	.st2{fill:#DFDFDD;}
	.st3{fill:#4B6584;}
	.st4{fill:#4B7BEC;}
	.st5{fill:#A5B1C2;}
	.st6{fill:#2D98DA;}
</style>
<circle class="st0" cx="424" cy="88" r="64"/>
<path class="st1" d="M408,88v240c0,70.7-57.3,128-128,128v32c88.4,0,160-71.6,160-160V88H408z"/>
<circle class="st2" cx="424" cy="88" r="32"/>
<path class="st1" d="M280,312c-48.6,0-88,39.4-88,88s39.4,88,88,88s88-39.4,88-88S328.6,312,280,312L280,312z M280,456
	c-30.9,0-56-25.1-56-56s25.1-56,56-56s56,25.1,56,56S310.9,456,280,456z"/>
<path class="st3" d="M230.1,425.5c-16.9-8.5-31-21.7-38.1-28.9c0,1.2-0.1,2.3-0.1,3.5c0,44.6,33.3,82.1,77.5,87.4
	c0.3-10.3,0.6-22.2,0.6-32.3C252.9,452,238.1,441.1,230.1,425.5L230.1,425.5z"/>
<path class="st3" d="M88,24h16c8.8,0,16,7.2,16,16s-7.2,16-16,16H88l0,0V24L88,24z"/>
<path class="st3" d="M168,24h16l0,0v32l0,0h-16c-8.8,0-16-7.2-16-16S159.2,24,168,24z"/>
<path class="st2" d="M64,24c-22.1,0-40,17.9-40,40v88h32V64c0-4.4,3.6-8,8-8h24V24H64z"/>
<path class="st2" d="M208,24h-24v32h24c4.4,0,8,3.6,8,8v88h32V64C248,41.9,230.1,24,208,24z"/>
<path class="st4" d="M280,456c-70.7,0-128-57.3-128-128v-49.1c55.1-8,96-55.2,96-110.9v-16h-32v16c0,44.2-35.8,80-80,80
	s-80-35.8-80-80v-16H24v16c0,55.7,40.9,102.9,96,110.9V328c0,88.4,71.6,160,160,160"/>
<rect x="-142.8" y="52.3" class="st1" width="99.9" height="115.7"/>
<rect x="-142.8" y="-87.4" class="st3" width="99.9" height="115.7"/>
<rect x="-262.7" y="-87.4" class="st5" width="99.9" height="115.7"/>
<rect x="-142.8" y="192" class="st4" width="99.9" height="116"/>
<rect x="-142.8" y="342.8" class="st6" width="99.9" height="121.4"/>
</svg>
